<svg xmlns="http://www.w3.org/2000/svg" version="1.1" xmlns:xlink="http://www.w3.org/1999/xlink" width="512" height="512" x="0" y="0" viewBox="0 0 64 64" style="enable-background:new 0 0 512 512" xml:space="preserve"><g><path d="M59 34.799h-7.82c-7.927.184-7.917 12.228 0 12.41H59a1.003 1.003 0 0 0 1-1v-10.41a.997.997 0 0 0-1-1zm-6.36 7.2a1 1 0 0 1 0-2 1 1 0 0 1 0 2z" fill="currentColor" opacity="1" data-original="#000000"></path><path d="M43.24 41.269a7.985 7.985 0 0 1 7.94-8.47h6.87v-2.41a7.526 7.526 0 0 0-7.5-7.51H10.2a4.325 4.325 0 0 1-2.96-1.22 4.225 4.225 0 0 1 2.96-7.19h10.32l3.92-2H10.2a6.205 6.205 0 0 0-6.2 6.2v32.95a7.52 7.52 0 0 0 7.51 7.51h39.04a7.52 7.52 0 0 0 7.51-7.51v-2.41h-6.88a7.947 7.947 0 0 1-7.94-7.94z" fill="currentColor" opacity="1" data-original="#000000"></path><path d="m21.64 20.879 20.05-10.22a1.003 1.003 0 0 1 1.35.43l4.98 9.79a19.458 19.458 0 0 1 4.9.31l-8.04-15.77a.998.998 0 0 0-1.34-.44l-14.27 7.27c-4.743 2.413-12.109 6.19-16.93 8.63z" fill="currentColor" opacity="1" data-original="#000000"></path><path d="M26.03 20.879h19.75l-4.07-7.99z" fill="currentColor" opacity="1" data-original="#000000"></path></g></svg>